<svg width="150" height="246" viewBox="0 0 150 246" fill="none" xmlns="http://www.w3.org/2000/svg">
<g clip-path="url(#clip0_130_183)">
<path d="M90.4102 88.3723C91.3091 90.9667 96.0828 96.8791 103.662 99.4776L128.185 104.808C128.185 104.237 128.206 103.669 128.235 103.104C130.715 104.21 134.514 103.521 135.743 103.73L128.273 102.575C128.631 97.3003 130.114 92.2638 130.318 87.0897C130.346 86.3994 106.688 81.6028 103.989 80.4787C102.792 79.9802 99.3758 71.9803 97.3758 66.4829L105.443 61.6633L102.273 55.8406L111.866 49.7926C113.422 48.6233 114.905 47.3607 116.308 46.0116L121.374 47.119C121.39 47.119 122.506 47.2128 122.642 47.2128C124.366 47.2128 124.808 45.8719 125.094 44.3578L127.951 23.7113C128.325 19.9574 129.034 18.337 125.509 17.9762L115.388 16.3266C113.159 16.0554 112.665 18.9689 112.677 18.971L110.863 30.4663C108.444 30.3015 104.625 31.6758 103.801 34.193C102.907 36.9334 102.758 38.2639 102.758 41.2066L96.7481 45.7238L96.331 44.9563L93.1423 47.0418C90.3748 35.7238 82.6626 42.0074 79.8868 44.5392C80.7043 41.2024 81.8034 37.1503 81.8034 35.7801C81.8034 35.5966 90.1078 33.5945 90.0161 28.8125C89.8617 20.7124 87.3279 14.777 84.112 11.5654C87.0484 9.20665 89.0943 6.56015 88.5583 3.88862C87.0985 -3.3585 74.0683 3.23169 70.0954 9.95743C68.8065 12.1368 68.1246 18.0909 70.3853 19.459C70.1932 20.8332 70.0824 22.2176 70.0537 23.605C69.939 27.8656 69.6366 33.6008 69.1569 36.1701C64.4228 33.2504 57.2153 34.7707 51.4489 45.3797C52.8775 42.9334 34.89 28.6373 22.646 50.4433C22.3228 51.0231 19.8243 54.9 16.7169 59.705C11.3551 67.997 4.17474 79.0564 3.19455 80.7373C-2.58854 90.6455 1.71385 96.0449 9.12363 96.2096L31.4573 96.708C29.2592 102.996 27.7868 107.826 27.8243 109.417L30.767 109.453C29.328 115.031 29.5157 120.349 30.4604 125.127C31.9328 132.508 35.2571 138.595 37.3196 142.364L37.2821 142.389H37.3342C37.6116 142.896 37.8681 143.361 38.0913 143.78L38.1059 144.024L37.2821 142.389L14.888 207.175C13.3968 210.401 6.53344 219.375 5.63876 222.343C3.34471 221.732 1.71593 227.698 4.53762 228.272C8.85252 229.152 5.85357 227.148 6.95888 230.681C7.34053 231.903 12.8942 231.323 12.5084 231.402C10.5501 237.058 18.1393 234.658 17.9849 235.192C16.1518 241.865 24.6043 237.442 23.937 238.839C22.2122 242.447 26.6877 242.787 27.645 242.385C31.6408 240.735 28.7253 243.363 30.3374 244.182C36.0058 247.06 37.8556 242.735 37.987 242.704C38.6898 246.134 46.6648 244.416 44.6022 239.117C46.548 227.73 35.1945 228.647 34.5563 227.913C32.8587 225.961 31.0527 220.808 32.8087 215.473L31.8848 215.056L51.9056 171.382L50.7899 169.185H50.8504L75.7867 218.891C75.5552 219.167 75.4197 219.642 76.2038 220.789C78.4833 227.292 78.5708 234.357 80.4499 237.056C79.8242 237.646 80.3811 242.895 81.2153 243.075C84.2664 243.742 84.9963 239.288 85.843 241.894C86.3122 243.338 88.7189 241.99 89.3883 241.423C91.5218 239.628 90.5625 238.729 91.7074 239.728C94.7961 242.422 96.8211 237.555 96.8524 237.542C98.8524 238.656 97.2924 239.15 100.848 238.501C103.976 237.93 104.861 235.192 105.04 235.429C106.387 237.202 109.513 236.583 110.408 235.012C111.603 232.898 110.871 233.607 111.38 233.807C113.465 234.626 113.674 234.51 115.664 233.358C116.629 232.802 117.159 231.212 117.213 231.194C117.497 231.976 119.547 232.155 120.237 231.982C121.023 231.792 121.721 231.341 122.217 230.703C122.713 230.064 122.977 229.276 122.967 228.468L122.308 226.201C122.861 225.575 117.282 215.479 107.128 217.859C97.1005 220.211 96.0953 214.95 94.4248 213.824L85.3946 185.605L66.3206 125.97C68.3877 125.947 70.4511 125.79 72.4979 125.5C72.5104 128.003 72.5229 130.462 72.5229 132.8V125.5C74.4587 125.243 76.352 124.731 78.1538 123.978L72.5229 124.114V114.02C74.4666 114.072 76.4395 114.103 78.4603 114.103L72.5229 113.941V109.957L83.3258 110.087C83.3383 110.087 89.4739 86.0094 92.4916 69.4026L94.4895 68.2097L90.4102 88.3723ZM110.537 32.508L110.435 33.1586C110.001 33.8005 109.513 34.404 108.975 34.9626C108.717 35.2233 108.408 35.753 108.02 35.8865C108.145 35.7488 109.516 33.9657 110.537 32.508ZM38.1059 143.803C38.2477 144.07 38.3791 144.32 38.4938 144.549L43.7075 154.96H43.6116L38.0996 144.028C38.1079 143.951 38.1059 143.878 38.1059 143.803ZM44.5709 239.181C44.2852 239.525 43.3071 239.653 42.1184 239.675C43.4385 239.536 44.3561 239.336 44.5605 239.181H44.5709ZM50.5709 168.723L43.8055 155.304H43.9015L50.6335 168.72L50.5709 168.723ZM72.4958 113.936L64.3644 113.711C67.0338 113.824 69.7283 113.936 72.4853 114.009C72.4603 117.271 72.4728 120.706 72.4853 124.105L65.7721 124.266L65.5511 123.578L55.378 119.048L55.0902 113.457C54.9838 113.44 54.9379 115.526 54.9484 118.856L42.7711 113.434C44.7961 113.34 46.7795 113.294 48.7357 113.284L42.0203 113.1L33.8869 109.478L72.5375 109.957C72.5125 111.236 72.4958 112.57 72.4853 113.936H72.4958Z" fill="#FF9078"/>
<path d="M142.141 111.751L143.021 106.537L139.355 106.664L136.031 104.391L132.152 104.168L131.81 109.799C132.519 112.351 140.022 113.085 142.141 111.751Z" fill="#FF9078"/>
<path d="M132.907 77.7175L132.073 81.3129L130.217 84.1074L132.302 84.3973L132.338 89.4797C131.866 89.3587 131.201 89.2086 130.181 89.0292L134.31 93.0647L137.174 98.293C136.828 98.9187 136.807 99.7425 137.226 100.616C137.364 100.902 135.412 102.155 136.183 103.83C136.527 104.572 137.205 104.735 139.52 105.953C141.449 106.973 146.469 106.276 146.252 103.225C146.206 102.566 146.511 102.105 146.878 101.611C147.046 101.446 147.19 101.257 147.305 101.05V101.05C147.806 100.382 148.08 99.5719 148.087 98.7372C148.089 97.8927 148.23 97.0542 148.504 96.2555C148.569 96.0877 148.619 95.9147 148.655 95.7383C148.713 95.5297 148.771 95.3087 148.83 95.0459C149.268 93.1043 147.968 91.7487 146.002 90.8749L146.836 86.414L149.32 86.7581L148.292 83.317L148.423 79.755L132.907 77.7175ZM138.394 97.3462C137.985 97.462 137.621 97.6999 137.351 98.0282C137.463 97.8439 137.615 97.6871 137.795 97.5691C137.976 97.4511 138.18 97.3749 138.394 97.3462V97.3462Z" fill="#FF9078"/>
<path d="M109.651 57.3319C109.561 57.2595 109.464 57.1959 109.361 57.1419L109.651 57.3319Z" fill="#FF9078"/>
<path d="M120.94 64.7269L124.923 67.3337C124.444 65.3755 124.047 63.3859 120.94 64.7269Z" fill="#FF9078"/>
<path d="M128.942 69.9615L124.93 67.3338C125.391 69.1919 125.945 71.023 128.942 69.9615Z" fill="#FF9078"/>
<path d="M48.7402 113.294L55.0948 113.467L64.3648 113.711C59.1636 113.503 54.052 113.261 48.7402 113.294Z" fill="#FF9078"/>
<path d="M18.8275 56.4266C16.742 55.9824 17.0131 55.3672 15.7973 57.0731C14.1289 59.413 11.3677 64.3911 11.3677 64.3911C11.4553 64.8082 12.8922 64.6184 13.3197 64.9438L18.8275 56.4266Z" fill="#FF9078"/>
<path d="M132.577 77.242L131.666 81.1398L129.474 84.439L131.874 84.7706L131.904 88.9416C131.564 88.8645 131.149 88.7769 130.636 88.683C130.679 88.1637 130.717 87.6403 130.738 87.121C130.761 86.5329 130.765 86.3931 116.765 83.2044C111.151 81.9239 105.347 80.6017 104.139 80.0991C103.643 79.8906 102.039 77.0501 99.6909 71.3233C99.036 69.7279 98.4145 68.1241 97.8848 66.6831L97.5094 66.9062L97.1382 67.1294L94.8796 68.4787L94.3833 68.7748L93.8869 69.071L89.9912 88.2868L89.9683 88.4015L90.0058 88.512C90.9297 91.1773 95.8452 97.2503 103.524 99.8822L128.613 105.34V104.808C128.613 104.443 128.613 104.078 128.633 103.713C129.636 104.012 130.676 104.167 131.722 104.174L131.38 109.855L131.399 109.924C131.632 110.758 132.462 111.48 133.797 111.999C135.372 112.562 137.034 112.844 138.706 112.833C140.229 112.833 141.601 112.597 142.366 112.118L142.529 112.016L143.443 106.62C144.078 106.483 144.685 106.236 145.236 105.89C146.252 105.229 146.746 104.297 146.669 103.198C146.633 102.7 146.861 102.343 147.197 101.901C147.386 101.71 147.548 101.493 147.678 101.257C148.211 100.53 148.502 99.6547 148.512 98.7539C148.505 97.9545 148.631 97.1594 148.886 96.4015L148.898 96.3577C148.96 96.1941 149.01 96.0261 149.046 95.8551C149.105 95.6465 149.165 95.4088 149.226 95.1377C149.361 94.6022 149.361 94.0417 149.226 93.5062C149.091 92.9708 148.825 92.4773 148.452 92.0699C147.894 91.4553 147.218 90.9589 146.465 90.61L147.167 86.8791L149.906 87.2586L148.715 83.2628L148.859 79.3817L132.577 77.242ZM147.334 86.049L144.275 85.6319L134.809 84.3056L132.723 84.0157L132.306 83.9573L131.876 83.8968L130.948 83.7696L132.369 81.6319L147.964 83.6924L148.721 86.2305L147.334 86.049ZM147.974 80.1241L147.876 82.8353L132.619 80.8123L133.232 78.1909L147.974 80.1241ZM128.677 102.821C128.838 100.27 129.27 97.757 129.691 95.3128C130.018 93.4234 130.348 91.4859 130.554 89.536C131.124 89.6424 131.562 89.7445 131.91 89.8196V90.1032C131.999 91.5026 134.235 92.6059 138.554 93.3671C139.351 93.5089 140.154 93.6215 140.919 93.7133C142.068 94.0782 144.022 95.1314 144.767 96.3723C145.121 96.9645 145.159 97.5151 144.88 98.0532C144.809 98.2225 144.705 98.3758 144.573 98.5037C144.441 98.6317 144.285 98.7317 144.114 98.7977C143.403 99.0188 142.36 98.4599 141.351 97.9197C140.408 97.4171 139.441 96.8999 138.56 96.9124V96.8707C138.469 96.8895 138.381 96.9103 138.296 96.9354C138.201 96.949 138.108 96.9699 138.016 96.9979C137.602 97.1362 137.247 97.4122 137.011 97.78C136.913 97.9015 136.827 98.0329 136.756 98.1721C136.392 98.8936 136.396 99.7633 136.756 100.635C136.711 100.696 136.648 100.771 136.592 100.844C136.175 101.348 135.453 102.212 135.582 103.3C135.019 103.268 134.454 103.268 133.891 103.3C132.377 103.346 130.262 103.417 128.677 102.821ZM135.72 103.82C135.735 103.863 135.753 103.907 135.772 103.951H135.697L135.72 103.82ZM145.816 103.254C145.87 104.036 145.518 104.681 144.773 105.169C143.313 106.128 140.846 106.174 139.714 105.586C139.159 105.292 138.69 105.056 138.314 104.867C137.092 104.251 136.767 104.074 136.577 103.663C136.177 102.798 136.696 102.066 137.259 101.39L137.353 101.279C139.088 102.641 141.086 103.365 143.038 103.365C143.505 103.365 143.97 103.323 144.429 103.24C144.911 103.154 145.382 103.015 145.833 102.823C145.812 102.966 145.807 103.11 145.816 103.254V103.254ZM147.649 98.7268C147.624 99.9301 147.126 100.581 146.642 101.213L146.548 101.334C146.041 101.828 145.224 102.216 144.268 102.393C143.207 102.589 140.439 102.777 137.578 100.353C137.284 99.6966 137.259 99.0605 137.516 98.5537C137.516 98.5349 137.539 98.5162 137.549 98.4953H137.566C137.603 98.4235 137.645 98.3538 137.691 98.2868C137.897 98.042 138.169 97.8623 138.475 97.7696C139.14 97.7049 140.058 98.1867 140.948 98.6705C141.897 99.1773 142.871 99.6966 143.768 99.6966C143.971 99.6977 144.174 99.6682 144.369 99.609C144.876 99.4385 145.299 99.0794 145.549 98.6058V98.633C146.312 98.5312 147.044 98.2666 147.695 97.8571C147.674 98.1116 147.657 98.3952 147.649 98.7268V98.7268ZM147.812 92.6309C148.095 92.9378 148.297 93.3108 148.4 93.7159C148.502 94.121 148.501 94.5452 148.398 94.95C148.352 95.1585 148.306 95.3337 148.26 95.5026C148.26 95.5422 148.246 95.584 148.239 95.6257C148.185 95.8175 148.133 95.9906 148.083 96.1533C147.831 96.7539 147.259 97.3754 145.897 97.6966C145.986 97.0808 145.85 96.4535 145.514 95.9301C145.059 95.1731 144.262 94.4891 143.401 93.9468C144.41 94.0198 145.159 94.0469 145.422 94.0469H145.509L145.839 94.024L146.316 91.4985C146.88 91.7811 147.387 92.1649 147.812 92.6309Z" fill="#1E1E1E"/>
<path d="M123.403 228.451V228.391L122.777 226.199C122.821 225.959 122.777 225.523 122.344 224.704L122.325 224.641H122.31C122.229 224.485 122.135 224.316 122.025 224.13C121.478 223.212 116.412 215.231 107.049 217.427C99.3531 219.233 97.2238 216.485 95.814 214.666C95.525 214.255 95.1882 213.879 94.8109 213.546L66.911 126.372C68.6408 126.333 70.3672 126.202 72.083 125.98C72.0956 128.353 72.106 130.606 72.106 132.793H72.961C72.961 130.566 72.961 128.274 72.9381 125.855C74.4857 125.621 76.0064 125.234 77.4782 124.702L73.3698 137.655L74.1852 137.911L82.863 110.499H83.5158L83.643 110.372C83.7327 110.283 83.7744 110.241 85.4782 103.265C86.4125 99.4505 87.8203 93.5819 89.2321 87.2878C90.7949 80.3362 92.0149 74.4578 92.8922 69.6528L92.4 69.9469L91.9078 70.2409L74.2019 80.8207C66.6941 84.9917 61.0049 87.0605 57.007 87.0605C55.3066 87.0605 53.9086 86.6872 52.813 85.9406C48.3855 82.9416 49.4407 74.6789 50.4606 66.6789C50.8943 63.2816 51.2948 60.0741 51.2948 57.3129H52.1498C52.1498 60.1283 51.7327 63.3609 51.301 66.7873C50.3146 74.5266 49.2927 82.5287 53.2843 85.2315C56.6795 87.5256 63.3782 85.8467 73.766 80.0782L91.7452 69.3358L92.1039 69.1273L92.1372 69.1085L92.5961 68.8353L93.0861 68.5413L94.1101 67.9302L94.6065 67.632L95.1028 67.3358L96.8338 66.3035L97.2071 66.0804L97.5804 65.8551L104.848 61.5131L101.881 56.0616L102.114 56.4391L102.356 56.2868L102.719 56.0574L102.819 55.9949L112.077 50.1555L112.108 50.1346C113.615 49.0004 115.055 47.7797 116.421 46.4787L121.328 47.5528H121.361L121.624 47.5736C122.216 47.6216 122.533 47.6445 122.625 47.6445C124.894 47.6445 125.288 45.559 125.499 44.4412L128.36 23.7655C128.406 23.2942 128.46 22.8563 128.508 22.4496C128.717 20.7186 128.863 19.4694 128.185 18.6206C127.712 18.0304 126.898 17.703 125.549 17.5653L115.424 15.9136C113.324 15.6592 112.421 17.751 112.239 18.8917C112.238 18.9035 112.238 18.9154 112.239 18.9272L110.485 30.0366C107.87 30.0158 104.229 31.4965 103.38 34.0721C102.485 36.8124 102.323 38.1868 102.314 41.0043L96.8922 45.0794L96.7983 45.1503L96.4521 45.4089L96.1998 45.5987L96.181 45.5632L93.6242 47.2316L93.2509 47.4777L92.8755 47.7217L88.7671 50.4078L88.3792 50.6622L70.6524 62.2618C70.5947 62.3247 70.5162 62.3647 70.4313 62.3744L68.0914 62.9146L69.9538 61.6966V61.7071L70.3041 61.5152C71.6868 60.7498 72.546 60.168 73.1258 59.6174L92.669 46.8374L93.0382 46.5955L93.4052 46.3557C92.5356 43.1941 91.1862 41.2108 89.3656 40.4391C86.3374 39.1545 82.813 41.4986 80.6357 43.3129C80.6878 43.1044 80.7379 42.9063 80.79 42.7019C81.4803 39.9511 82.1352 37.3421 82.2269 36.0491L82.5439 35.9365C84.521 35.2358 90.5335 33.1044 90.4501 28.7958C90.2999 20.9001 87.9141 14.9668 84.7608 11.5883C87.6034 9.22751 89.5324 6.55806 88.9819 3.8052C88.5961 1.88237 87.4115 0.701976 85.5554 0.387066C81.0048 -0.382485 72.8714 4.42251 69.7306 9.73845C68.3729 12.0325 67.6889 17.8844 69.9287 19.6592C69.7559 20.9631 69.6528 22.2754 69.6201 23.5904C69.4803 28.7123 69.1759 33.1607 68.8359 35.4881C67.9298 35.0083 66.949 34.6853 65.935 34.533C60.8005 33.7551 55.716 37.2587 51.6868 44.1096C51.6618 44.0596 51.6326 44.0095 51.6034 43.9574C50.4147 41.899 45.5555 38.0825 39.1801 38.0825H39.0779C34.5044 38.1117 27.8767 40.241 22.2729 50.2243C22.0373 50.6414 20.6045 52.8729 18.6316 55.9407C18.2792 55.8531 18.006 55.7655 17.7808 55.6925C16.6358 55.3171 16.3772 55.5194 15.4492 56.8228C13.7808 59.1565 11.1071 63.9782 10.9945 64.1826L10.9174 64.3202L10.9486 64.4766C11.0592 65.0126 11.6869 65.0772 12.2938 65.1398C12.3918 65.1502 12.5253 65.1627 12.6546 65.1815C8.07691 72.2555 3.59517 79.1898 2.82353 80.5099C-0.809412 86.7352 -0.175424 90.535 0.994543 92.6267C2.38974 95.1293 5.274 96.5412 9.11341 96.6267L30.861 97.1126C28.7526 103.188 27.3574 107.828 27.3949 109.417V109.834L30.2083 109.868C26.8443 123.861 33.4262 136.162 36.8235 142.364L14.4815 207.014C13.835 208.403 12.1728 210.885 10.4148 213.513C7.83499 217.365 5.97055 220.214 5.33865 221.878C4.95375 221.871 4.57666 221.987 4.26253 222.209C3.09048 223.006 2.35012 225.129 2.67754 226.766C2.88609 227.821 3.51175 228.505 4.44188 228.693C5.04595 228.827 5.65959 228.912 6.27712 228.95C6.2229 229.367 6.27712 229.955 6.5399 230.812C6.82144 231.711 8.43353 232.026 11.9163 231.855C11.6139 233.025 11.7224 233.94 12.2354 234.603C13.2886 235.942 15.6473 235.719 17.0571 235.586L17.445 235.552C17.1301 236.973 17.2781 237.99 17.8892 238.654C18.9653 239.821 21.1426 239.408 22.5816 239.137C22.8506 239.087 23.1572 239.029 23.3908 238.998C22.8047 240.457 23.2323 241.375 23.7182 241.888C24.7922 243.025 27.0008 243.119 27.7974 242.791C28.8986 242.337 29.3011 242.28 29.4491 242.289C29.4449 242.412 29.4323 242.536 29.4116 242.658C29.3365 243.198 29.203 244.105 30.1332 244.574C31.4846 245.26 32.7442 245.6 33.8871 245.6C34.6628 245.609 35.4293 245.432 36.1229 245.084C36.8164 244.737 37.417 244.229 37.8746 243.602C38.2581 244.195 38.856 244.615 39.543 244.777C40.4053 244.982 41.3064 244.956 42.156 244.703C43.0055 244.451 43.7736 243.979 44.3834 243.335C45.397 242.209 45.6222 240.704 45.0278 239.085C45.5367 235.999 45.1217 233.494 43.7932 231.642C41.7202 228.749 37.9705 228.153 35.9538 227.834C35.5777 227.787 35.2056 227.713 34.8402 227.613C33.1572 225.644 31.5451 220.654 33.203 215.617L33.3219 215.256L32.4397 214.839L51.9433 172.314L75.301 218.862C74.9694 219.546 75.4199 220.374 75.8307 220.979C76.8734 223.982 77.4553 227.11 77.9663 229.876C78.5252 232.898 79.009 235.523 79.9642 237.069C79.5471 238.166 79.8953 240.975 80.2228 242.14C80.4626 242.975 80.7421 243.392 81.1341 243.488C81.3649 243.539 81.6006 243.565 81.8369 243.565C83.2342 243.565 84.1498 242.601 84.7274 241.992C84.8803 241.82 85.047 241.66 85.2259 241.515C85.3234 241.672 85.3978 241.843 85.4469 242.022C85.5074 242.231 85.6206 242.422 85.7757 242.576C85.9309 242.73 86.1229 242.841 86.3333 242.9C87.545 243.244 89.3051 242.065 89.6701 241.744C90.3173 241.237 90.8485 240.597 91.228 239.867L91.4365 240.042C92.302 240.8 93.1883 241.085 94.0684 240.91C95.4824 240.62 96.4834 239.179 97.034 238.14C97.2664 238.298 97.4768 238.486 97.6596 238.699C98.2394 239.325 98.546 239.35 100.926 238.908C103.343 238.466 104.517 236.822 105.04 236.047C105.401 236.366 105.823 236.607 106.282 236.755C106.74 236.903 107.224 236.954 107.703 236.906C109.036 236.816 110.244 236.145 110.78 235.198C111.024 234.764 111.197 234.445 111.305 234.214C113.424 235.048 113.795 234.906 115.879 233.703C116.579 233.298 117.053 232.487 117.338 231.917C118.208 232.476 119.806 232.508 120.348 232.372C121.226 232.161 122.006 231.658 122.561 230.946C123.116 230.234 123.413 229.354 123.403 228.451V228.451ZM96.8651 46.1784L97.2113 45.9198L97.3051 45.8489L103.18 41.4443V41.2358C103.18 38.3745 103.32 37.0523 104.202 34.3536C104.886 32.2681 108.077 30.9397 110.36 30.9063C110.508 30.9063 110.65 30.9063 110.79 30.9167C110.886 30.9167 110.98 30.9251 111.071 30.9417C110.978 31.1044 110.846 31.3088 110.692 31.5382C110.538 31.7676 110.337 32.0617 110.131 32.3536C109.178 33.703 107.922 35.3547 107.701 35.6216L106.732 36.7958L108.173 36.2973C108.558 36.1638 108.844 35.8093 109.074 35.5257C109.153 35.4277 109.228 35.3338 109.282 35.2713C109.432 35.1232 109.587 34.9501 109.743 34.7666C109.899 34.583 110.1 34.3349 110.283 34.0929C110.467 33.851 110.65 33.5966 110.838 33.3255C111.858 31.8656 112.942 30.0012 113.939 28.2932C115.049 26.3974 116.427 24.0367 116.859 23.8364C117.386 23.655 118.079 23.5048 118.385 23.8364C118.757 24.2285 118.692 25.3109 118.246 26.7186C117.87 27.1545 117.368 28.1347 116.602 29.6383C115.691 31.4402 114.444 33.9073 113.747 34.2973L114.164 35.0439C115.021 34.5643 116.031 32.6602 117.363 30.0241C117.639 29.4798 117.918 28.9272 118.171 28.4558L118.408 28.5684L118.602 28.2118C120.419 24.8646 121.522 24.2244 122.123 24.2786C122.221 24.274 122.319 24.2959 122.406 24.3422C122.493 24.3884 122.566 24.4572 122.617 24.5413C123.192 25.5841 121.468 29.0064 120.74 30.4704C120.46 31.0273 120.254 31.436 120.171 31.6758C119.159 33.6884 117.119 37.5653 116.702 37.9324C116.739 37.9068 116.78 37.8884 116.823 37.8781L117.017 38.7123C117.226 38.6644 117.42 38.6164 118.602 36.4934L118.275 37.4986L120.946 32.0366C121.766 30.3682 122.214 30.1284 122.304 30.0971C122.527 30.3057 122.79 31.7071 122.206 34.7645C121.528 38.3098 120.12 41.6362 116.158 45.5632C116.039 45.6821 115.918 45.8009 115.793 45.9198L115.418 46.2764C114.204 47.4011 112.934 48.464 111.614 49.461L102.417 55.2524L102.396 55.265L101.528 53.8572L97.5116 47.3755L96.8046 46.2306L96.8651 46.1784ZM117.562 21.1524C117.428 21.4173 117.115 21.826 116.838 21.8823C115.662 22.1222 116.196 20.7728 116.339 20.3557C116.861 18.8563 118.285 19.703 117.562 21.1587V21.1524ZM117.624 231.025L117.478 230.624L117.078 230.768C116.894 230.833 116.838 230.964 116.74 231.185C116.567 231.571 116.114 232.597 115.459 232.971C113.526 234.086 113.439 234.138 111.582 233.406C111.56 233.322 111.512 233.246 111.446 233.189C111.379 233.132 111.296 233.096 111.209 233.087C111.106 233.078 111.004 233.105 110.919 233.164C110.834 233.223 110.772 233.309 110.744 233.408C110.54 233.882 110.306 234.342 110.043 234.785C109.651 235.477 108.692 235.99 107.653 236.061C106.696 236.126 105.872 235.798 105.391 235.162C105.347 235.104 105.289 235.056 105.223 235.025C105.157 234.993 105.084 234.978 105.011 234.981C104.738 234.981 104.594 235.19 104.385 235.513C103.908 236.218 102.915 237.684 100.784 238.074C98.6523 238.464 98.5731 238.416 98.3041 238.122C97.9546 237.73 97.5379 237.405 97.0736 237.16L96.8797 237.054L96.6711 237.15C96.5624 237.205 96.4789 237.3 96.4375 237.415C95.7118 238.92 94.7837 239.89 93.8911 240.072C93.2863 240.197 92.6398 239.969 91.9933 239.398C91.5575 239.018 91.3364 238.829 91.0236 238.889C90.7107 238.95 90.6065 239.179 90.5001 239.408C90.1705 240.066 89.698 240.641 89.1174 241.091C88.6002 241.525 87.228 242.268 86.5606 242.076C86.4843 242.057 86.4149 242.017 86.3603 241.961C86.3057 241.904 86.2681 241.834 86.2519 241.757C86.0934 241.269 85.8682 240.758 85.4073 240.651C84.9464 240.545 84.5377 240.941 84.0997 241.402C83.4553 242.082 82.6524 242.923 81.3489 242.654C80.9047 242.222 80.5001 239.183 80.6211 237.878C80.6294 237.719 80.6611 237.562 80.7149 237.413H80.7421L81.2176 237.277L121.73 225.703L121.837 226.068L121.968 226.518L122.095 226.96L122.548 228.518C122.541 229.218 122.301 229.896 121.866 230.443C121.43 230.991 120.824 231.378 120.143 231.542C119.426 231.73 117.774 231.446 117.624 231.031V231.025ZM89.4699 214.712C89.4386 210.018 89.4344 204.328 89.4699 199.721L93.8828 213.509L89.4699 214.712ZM88.6169 214.943L86.9819 215.39C84.717 214.618 81.6117 214.816 78.9986 214.985C78.1102 215.041 77.2655 215.096 76.5252 215.108C75.8182 212.518 75.8515 207.379 75.9183 201.874C77.2405 201.961 78.6023 202.082 79.9537 202.193C82.5773 202.418 85.2905 202.649 87.5408 202.649V201.794C85.326 201.794 82.7441 201.573 80.033 201.342C78.6628 201.225 77.278 201.106 75.935 201.019C76.0017 195.425 76.0601 189.68 75.3615 186.024C77.0299 186.082 78.6983 186.126 80.4793 186.126C81.9391 186.126 83.4636 186.097 85.1008 186.028L88.6586 197.144C88.5773 202.136 88.5773 209.298 88.6148 214.95L88.6169 214.943ZM39.4762 161.021C39.2218 158.362 39.0237 156.257 38.9715 155.475C40.3709 155.557 41.9413 155.64 43.6201 155.724L50.1394 168.716C46.3855 168.533 43.0258 168.353 40.1436 168.182C39.9309 165.849 39.7056 163.438 39.4762 161.021ZM38.5815 130.222C38.6024 128.537 38.6212 126.818 38.6378 125.065C42.6337 125.102 46.9569 125.417 51.1988 125.726L54.6045 125.97C54.6691 129.542 54.765 133.402 54.886 137.1C54.9089 137.79 54.934 138.52 54.9611 139.281C48.7713 138.95 42.3146 139.361 38.5106 141.158C38.494 137.496 38.5357 133.905 38.5815 130.222V130.222ZM38.6629 120.051C38.6629 119.083 38.7254 118.143 38.788 117.234C38.8798 115.878 38.9549 114.754 38.788 113.934C39.4615 113.991 40.1379 114.003 40.813 113.972C45.6097 113.674 50.1227 113.667 54.6003 113.778C54.5315 114.524 54.4856 116.328 54.5252 120.919C54.5377 122.239 54.5565 123.646 54.5794 125.11L51.2426 124.873C46.9861 124.562 42.6504 124.247 38.6274 124.207C38.6511 122.848 38.6629 121.462 38.6629 120.051V120.051ZM55.0382 113.884L55.0528 113.788H55.3636C55.3191 113.826 55.2671 113.854 55.2111 113.871C55.1551 113.887 55.0962 113.892 55.0382 113.884ZM55.8099 155.367C51.8141 155.223 47.7515 155.054 44.1644 154.883L38.8756 144.368C38.7734 144.159 38.667 143.94 38.5336 143.707C38.5336 143.177 38.5211 142.65 38.5169 142.124C42.0831 140.247 48.6837 139.83 54.9924 140.168C55.1696 144.904 55.4345 150.641 55.8015 155.367H55.8099ZM38.5628 145.644L43.1738 154.835C41.6368 154.76 40.2041 154.683 38.9173 154.61C38.7338 151.49 38.6233 148.524 38.5628 145.644ZM44.6107 155.769C48.1123 155.936 52.0289 156.099 55.8724 156.237C56.1853 160.005 56.5711 163.008 57.0362 164.136C57.326 164.837 57.4533 166.866 57.5408 169.06L55.4553 168.967C53.9566 168.9 52.5085 168.83 51.1112 168.758L44.6107 155.769ZM72.7233 159.847C72.8234 162.766 72.9444 166.212 73.0987 169.663C69.2176 169.538 64.081 169.344 58.398 169.098C58.3125 166.758 58.1686 164.637 57.8266 163.809C57.4407 162.873 57.0695 160.264 56.7338 156.266C62.7525 156.474 68.5252 156.616 72.2061 156.616H72.6086C72.644 157.594 72.6837 158.695 72.7233 159.847ZM57.57 169.93C57.5909 170.631 57.6076 171.334 57.6243 172.001C57.7139 175.605 57.7703 176.627 57.9997 176.964L58.7087 176.483L58.7254 176.514C58.5836 176.172 58.5294 173.945 58.4793 171.98C58.4626 171.319 58.446 170.639 58.4272 169.968C63.8975 170.207 69.1279 170.406 73.1383 170.531C73.4032 176.251 73.764 181.886 74.3166 185.129L72.1268 185.037C69.3323 184.916 66.4397 184.791 63.1717 184.791V185.646C66.423 185.646 69.3031 185.771 72.0893 185.89L74.4772 185.99C75.1988 189.536 75.1404 195.327 75.0737 200.966C72.0893 200.798 69.3615 200.814 67.4783 201.363L51.5659 169.644C53.5596 169.749 55.5763 169.842 57.57 169.93ZM75.1904 185.169C74.6357 182.011 74.2645 176.339 73.9955 170.558C76.4313 170.629 78.3416 170.67 79.4762 170.67C79.7598 170.67 79.9934 170.67 80.1748 170.67L84.8234 185.196C81.2405 185.334 78.1873 185.279 75.1904 185.169ZM73.9558 169.69C73.7994 166.222 73.6805 162.758 73.5784 159.817C73.5346 158.566 73.497 157.498 73.4636 156.61C74.4313 156.599 75.18 156.572 75.6534 156.531L79.9058 169.822C78.9881 169.828 76.886 169.782 73.9558 169.69V169.69ZM75.3865 155.696C74.936 155.73 74.2728 155.749 73.4303 155.757C73.3469 153.644 73.2906 152.743 73.2217 152.506L72.4063 152.762C72.4584 152.971 72.5189 154.122 72.5836 155.761C68.9611 155.761 62.9486 155.615 56.6712 155.396C56.3625 151.475 56.0873 146.345 55.8599 140.21C60.448 140.51 64.7817 141.198 67.5971 141.997L67.8307 141.175C64.8964 140.341 60.4752 139.634 55.8266 139.332C55.8057 138.745 55.7849 138.153 55.7661 137.551C55.6264 133.398 55.5304 129.463 55.4699 126.026C58.6858 126.235 61.8766 126.406 64.9027 126.406C65.2781 126.406 65.6472 126.406 66.0163 126.406L75.3865 155.696ZM66.6274 125.532L65.9621 123.446L65.1488 123.722L65.7369 125.557C62.4668 125.592 58.9736 125.415 55.447 125.179C55.3469 119.15 55.3615 114.814 55.447 113.811C58.1582 113.886 60.8693 114.003 63.6222 114.122C66.375 114.241 69.1738 114.36 72.0476 114.439C72.0247 117.905 72.0476 121.557 72.0601 125.138C70.2588 125.372 68.4457 125.503 66.6295 125.532H66.6274ZM77.7994 123.655C76.2324 124.294 74.5949 124.745 72.9214 124.998C72.9027 121.465 72.886 117.868 72.9089 114.454C74.7316 114.497 76.5836 114.527 78.4709 114.527V113.672C76.594 113.672 74.7379 113.642 72.9152 113.596C72.9152 112.502 72.9381 111.428 72.9569 110.381L81.9683 110.489L77.7994 123.655ZM9.13218 95.7758C5.60768 95.6987 2.98203 94.4328 1.74116 92.2117C0.21874 89.5005 0.848564 85.5965 3.5618 80.95C4.32718 79.6403 8.83812 72.6643 13.4283 65.5673L13.7703 65.0397L14.2896 64.2389C15.1947 62.8374 16.0915 61.4547 16.9424 60.1367C17.1697 60.1367 17.4033 60.1471 17.6515 60.1471C19.4533 60.1471 21.8099 60.0053 24.2813 59.8551C26.8318 59.7029 29.47 59.5444 31.5555 59.5444H32.7234C35.8057 59.5444 41.4241 59.5298 45.0278 59.7529L45.4741 59.7821L45.7786 59.8051C44.1915 64.0533 42.4418 68.6893 40.7067 73.1878C40.2896 74.2785 39.8725 75.3608 39.4554 76.4265C37.1613 82.3744 34.9903 87.8426 33.445 91.5506L33.299 91.584L33.0279 91.6507L32.8297 91.6966L32.7401 91.8759V91.8947C31.1843 95.023 30.9632 95.9302 31.0133 96.2743L9.13218 95.7758ZM19.5221 56.1513C21.42 53.2066 22.7818 51.0794 23.0175 50.6581C28.421 41.0335 34.738 38.9793 39.0758 38.9522H39.1884C45.1446 38.9522 49.8036 42.5517 50.8672 44.3995C51.1279 44.85 51.1238 45.094 51.0758 45.169L51.0382 45.2483C51.0357 45.259 51.0322 45.2695 51.0278 45.2796C50.7275 46.1722 50.3375 47.2921 49.8745 48.5934C48.8881 51.3546 47.5659 54.9709 46.0706 58.9605L45.7828 58.9375L45.3365 58.9042C41.7578 58.6643 36.1019 58.6747 32.7088 58.681H31.5555C29.445 58.681 26.7943 58.8395 24.2312 58.9938C21.6681 59.1482 19.2823 59.2941 17.4992 59.2795L19.1676 56.681L19.518 56.1388L19.5221 56.1513ZM45.1175 90.2826C42.35 92.1408 37.9997 94.5037 32.6045 95.5902L32.2854 95.6528L32.0769 95.6924L31.9496 95.7195C32.3807 94.5974 32.8679 93.4976 33.4095 92.4244H33.4408L33.5409 92.4015L34.0602 92.2722C40.4627 90.6267 45.812 87.2837 49.2531 82.7748C49.6206 83.774 50.0382 84.754 50.5044 85.7112C50.033 86.3285 48.1269 88.268 45.1175 90.2826ZM85.4115 1.23169C86.9089 1.48613 87.8286 2.41 88.1435 3.97622C88.6211 6.35994 86.8067 8.77287 84.1456 10.9814L83.7973 11.263C83.6868 11.3526 83.5721 11.4423 83.4574 11.5299C79.7285 14.4141 74.6983 16.8688 71.8203 18.2765L70.9423 18.7082L70.4772 18.9376L70.4251 18.9647C70.301 18.8584 70.1897 18.7381 70.0935 18.606C68.7629 16.7875 69.3823 12.0137 70.4668 10.1764C73.205 5.54243 80.1852 1.16079 84.5106 1.16079C84.8123 1.15931 85.1137 1.18303 85.4115 1.23169V1.23169ZM70.0163 32.5142C70.2249 30.0742 70.3875 26.8333 70.4751 23.6258C70.5077 22.3296 70.6101 21.0361 70.7817 19.7509C71.1779 19.5424 71.6534 19.3192 72.1957 19.0544C75.351 17.5132 80.3437 15.0753 84.083 12.1535C84.7154 12.8306 85.2843 13.5643 85.7827 14.3453C87.4511 16.9293 89.4574 21.5382 89.595 28.8312C89.6659 32.5226 84.0914 34.4996 82.2582 35.1482C81.5679 35.3943 81.3823 35.4589 81.3823 35.7905C81.3823 36.85 80.6586 39.7301 79.96 42.5121C79.8057 43.1378 79.6513 43.7384 79.5074 44.3223C79.3531 44.4641 79.2113 44.5955 79.0903 44.7081C78.9131 44.8729 78.7295 45.0439 78.6732 45.0794C78.4793 45.2128 77.6493 45.096 76.9485 44.9751C76.926 44.8827 76.8989 44.7915 76.8672 44.7019C76.8109 44.5559 76.7337 44.3536 74.6461 43.2128L74.2895 43.0189L74.2791 43.0356C73.6117 39.9991 71.9204 37.4735 69.6159 35.9636C69.7515 35.1816 69.8849 34.0804 70.0163 32.5059V32.5142ZM72.154 54.3306C72.8276 52.0366 73.5512 49.582 74.0309 47.5486C74.0664 47.4068 74.0976 47.2671 74.1289 47.1315C74.1602 46.9959 74.1957 46.8354 74.2269 46.6915C74.3208 46.2535 74.4 45.8427 74.4605 45.4694C74.4855 45.3213 74.5064 45.1795 74.5231 45.0418C74.5398 44.9042 74.5585 44.7519 74.571 44.6247C74.5836 44.4975 74.594 44.3119 74.5961 44.1722C74.8046 44.2931 75.0257 44.4162 75.2217 44.535L75.5575 44.7436C75.7414 44.8518 75.9196 44.9694 76.0914 45.096C76.1095 45.1544 76.1261 45.217 76.1414 45.2837C76.1746 45.4315 76.1983 45.5813 76.2123 45.7321C76.2566 46.3345 76.2469 46.9396 76.1831 47.5403C76.1686 47.6842 76.1539 47.8301 76.1373 47.9803C76.1206 48.1305 76.1039 48.2618 76.0851 48.3974C75.7744 50.7394 75.0424 53.582 74.375 55.2086C74.1247 55.8114 73.9579 56.3098 73.7911 56.7498C73.276 58.1888 73.0486 58.8353 71.4199 59.8781C71.155 60.0512 70.8547 60.2347 70.5085 60.4349C70.7108 59.2337 71.4991 56.5559 72.154 54.3223V54.3306ZM12.3793 64.2847C12.2563 64.2722 12.0852 64.2535 11.9434 64.2305C12.6108 63.046 14.7693 59.2462 16.1457 57.315C16.4627 56.8687 16.7714 56.462 16.9299 56.3786C17.0091 56.3411 17.153 56.3786 17.5159 56.5017C17.6848 56.5559 17.8913 56.6226 18.1415 56.6935L13.1551 64.4099C12.9005 64.3464 12.641 64.3046 12.3793 64.2847ZM31.0946 109.87L72.1039 110.374C72.0831 111.417 72.0705 112.487 72.0622 113.578C69.1988 113.496 66.4063 113.369 63.6681 113.261C56.0393 112.933 48.8339 112.623 40.7713 113.121C39.997 113.155 39.2213 113.133 38.4502 113.054C38.3652 112.937 38.2617 112.835 38.1436 112.752C37.6806 112.429 37.0404 112.449 36.1957 112.806L35.8725 112.766C34.4959 112.565 33.1088 112.443 31.7182 112.401V113.257C33.0739 113.298 34.4262 113.418 35.7682 113.615C36.4794 113.703 37.2009 113.79 37.9017 113.861C38.1102 114.547 38.0226 115.88 37.935 117.179C37.8746 118.061 37.8078 119.056 37.8078 120.055C37.8078 121.465 37.8016 122.85 37.789 124.21C35.4543 124.188 33.1211 124.332 30.8068 124.641C29.9497 120.107 29.8037 115.106 31.0946 109.876V109.87ZM30.9757 125.471C33.2323 125.174 35.5068 125.035 37.7828 125.054C37.7689 126.806 37.7501 128.523 37.7265 130.205C37.6785 134.043 37.6347 137.782 37.6577 141.609C37.593 141.649 37.5284 141.688 37.4658 141.73C35.4595 138.068 32.4272 132.351 30.9757 125.478V125.471ZM37.3886 143.369L37.6785 143.907C37.7265 147.315 37.8391 150.823 38.0602 154.543C36.1186 154.424 34.5795 154.314 33.6368 154.216L37.3886 143.369ZM33.3511 155.048C34.3167 155.156 35.9809 155.279 38.1102 155.411V155.484C38.1582 156.253 38.3501 158.282 38.617 161.087C38.8026 163.044 39.0341 165.492 39.2739 168.116C34.0748 167.797 30.5482 167.511 29.1175 167.281L33.3511 155.048ZM28.8402 168.099C30.348 168.358 34.2854 168.666 39.3594 168.977C39.8474 174.399 40.3417 180.395 40.5023 184.305C36.227 183.717 30.3834 183.127 26.4898 183.067C26.1937 180.893 25.7912 179.261 25.2573 178.464L28.8402 168.099ZM24.8777 179.569C25.1905 180.351 25.445 181.557 25.6473 183.067C24.9743 183.063 24.3017 183.098 23.6327 183.171L24.8777 179.569ZM23.3157 184.086C24.1213 183.954 24.9375 183.897 25.7536 183.917C26.2062 187.88 26.3522 193.559 26.3063 199.142C22.9841 198.883 19.4742 198.593 18.3814 198.378L23.3157 184.086ZM18.1019 199.175C18.9611 199.384 21.0216 199.577 26.2979 199.988C26.2458 204.316 26.079 208.526 25.8496 211.774L15.422 206.939L18.1019 199.175ZM39.7911 243.938C39.2572 243.794 38.5878 243.446 38.4168 242.616L38.3292 242.186L37.9017 242.286C37.7181 242.328 37.6389 242.451 37.5304 242.62C36.0143 244.987 33.6619 245.383 30.5399 243.798C30.1978 243.623 30.1978 243.35 30.2792 242.756C30.3376 242.339 30.4022 241.874 30.031 241.584C29.8657 241.465 29.665 241.405 29.4616 241.415C29.0445 241.415 28.4189 241.596 27.4929 241.978C27.0362 242.168 25.1843 242.149 24.3647 241.279C23.8725 240.76 23.8642 239.995 24.3376 239.004C24.3966 238.903 24.4248 238.786 24.4185 238.669C24.4122 238.552 24.3717 238.439 24.3021 238.345C24.0206 237.978 23.4679 238.084 22.4481 238.276C21.1968 238.512 19.2969 238.87 18.544 238.053C18.0873 237.561 18.0435 236.628 18.4127 235.285C18.433 235.212 18.4353 235.134 18.4194 235.059C18.4034 234.985 18.3696 234.915 18.3209 234.856C18.1123 234.61 17.8099 234.647 17.0029 234.714C15.8475 234.822 13.6973 235.025 12.934 234.053C12.5545 233.571 12.5169 232.802 12.8527 231.759L13.0175 231.723L12.9674 231.329C12.9153 230.931 12.5691 230.95 12.2041 230.971C7.64938 231.227 7.39078 230.572 7.38244 230.553C6.95491 229.19 7.2156 228.833 7.21143 228.833L7.52217 228.624L7.19474 227.959L6.84021 228.072C6.84021 228.072 6.37305 228.209 4.63791 227.863C4.05397 227.744 3.68484 227.321 3.54095 226.612C3.28234 225.323 3.8788 223.534 4.76722 222.931C4.87839 222.854 5.00282 222.798 5.13427 222.766C5.27552 222.734 5.42268 222.738 5.5618 222.779C5.67809 222.812 5.78851 222.864 5.88922 222.931C6.02269 223.016 6.16242 223.102 6.30632 223.187C7.27399 223.765 8.45856 224.326 9.7036 224.914C11.6181 225.819 13.7891 226.845 15.7516 228.201C16.9841 229.054 18.3438 230.095 19.7828 231.196C21.7933 232.735 24.0018 234.424 26.2792 235.903C28.7463 237.502 31.2969 238.852 33.7724 239.494C34.7247 239.751 35.7057 239.886 36.6921 239.896C36.9549 239.896 37.4721 239.93 38.0727 239.967C39.8037 240.08 41.2009 240.14 42.2729 240.115C43.2218 240.093 43.9246 240.001 44.3918 239.815C44.7004 240.966 44.4919 241.982 43.7786 242.777C42.8255 243.801 41.1154 244.311 39.7807 243.949L39.7911 243.938ZM31.6806 214.485L26.6754 212.168C26.9194 208.889 27.105 204.551 27.1613 200.072L27.8037 200.122C31.9058 200.437 36.129 200.762 37.8328 201.048L31.6806 214.485ZM38.2082 200.241C36.5878 199.934 32.348 199.615 27.8767 199.265L27.178 199.21C27.2281 193.682 27.08 188.026 26.6024 183.934C30.4252 184.007 36.2791 184.583 40.5377 185.185C40.5899 186.916 40.5565 188.105 40.4001 188.46L41.1801 188.812C41.3699 188.395 41.4283 187.144 41.3886 185.304C42.8026 185.513 43.9892 185.721 44.7901 185.899L38.2082 200.241ZM45.1488 185.096C44.3375 184.908 42.9965 184.679 41.3594 184.441C41.228 180.768 40.7817 175.202 40.227 169.044C43.3845 169.233 46.9361 169.423 50.5899 169.605L51.4574 171.334L45.1488 185.096ZM67.8808 202.147C69.6514 201.671 72.2374 201.665 75.0757 201.828C75.0048 207.642 74.9694 213.062 75.8119 215.678L76.229 215.546V215.963C77.0632 215.963 78.0434 215.901 79.0778 215.834C81.0778 215.707 83.3823 215.559 85.2926 215.851L76.0351 218.37L67.8808 202.147Z" fill="#1E1E1E"/>
<path d="M138.9 76.2493C139.28 72.9312 138.314 70.2389 136.254 68.8624C135.427 68.3199 134.465 68.017 133.477 67.9871C132.488 67.9573 131.51 68.2018 130.652 68.6935C128.813 69.7175 127.48 70.0616 126.69 69.7175C125.868 69.3588 125.595 68.2576 125.305 67.0731C124.992 65.8051 124.669 64.4933 123.549 64.0241C122.573 63.6174 121.226 63.9573 119.305 65.096C118.629 65.4985 118.124 65.6403 117.805 65.5131C117.376 65.3484 117.148 64.6289 116.907 63.8656C116.464 62.4641 115.864 60.5454 113.33 61.0856C112.368 61.2941 111.709 61.267 111.37 61.0168C111.03 60.7665 110.952 60.1534 110.886 59.4672C110.8 58.5204 110.694 57.3442 109.555 56.7561L109.163 57.5152C109.835 57.8635 109.941 58.5142 110.035 59.5444C110.108 60.3619 110.185 61.2128 110.869 61.705C111.43 62.1221 112.27 62.1867 113.516 61.9135C115.196 61.5548 115.601 62.5162 116.097 64.1158C116.389 65.0376 116.69 65.9928 117.507 66.3035C118.097 66.5288 118.811 66.3744 119.749 65.8176C121.37 64.8541 122.542 64.5121 123.224 64.7999C123.947 65.1023 124.206 66.1513 124.475 67.2628C124.788 68.5267 125.14 69.9594 126.352 70.487C127.428 70.9563 128.927 70.6184 131.069 69.4276C131.79 69.0126 132.612 68.8052 133.443 68.8284C134.275 68.8516 135.084 69.1044 135.78 69.559C137.566 70.7519 138.393 73.1502 138.051 76.1388L138.9 76.2493Z" fill="#1E1E1E"/>
<path d="M142.356 75.828L143.211 75.8092C143.143 72.7853 141.96 68.414 138.849 66.0428C137.026 64.6539 134.799 64.2368 132.409 64.8395L132.352 64.8583C129.18 66.1471 128.598 65.0668 127.716 63.4339C126.811 61.755 125.683 59.6675 121.372 60.2118L121.478 61.0606C125.211 60.5893 126.1 62.2431 126.963 63.8405C127.86 65.5089 128.786 67.2191 132.646 65.6612C134.792 65.1294 136.707 65.486 138.331 66.7248C141.018 68.7686 142.288 72.7707 142.356 75.828Z" fill="#1E1E1E"/>
</g>
<defs>
<clipPath id="clip0_130_183">
<rect width="150" height="245.911" fill="white"/>
</clipPath>
</defs>
</svg>
